<?xml version="1.0" encoding="utf-8"?>
<!DOCTYPE svg PUBLIC "-//W3C//DTD SVG 1.1//EN" "http://www.w3.org/Graphics/SVG/1.1/DTD/svg11.dtd">
<svg version="1.1" xmlns="http://www.w3.org/2000/svg" xmlns:xlink="http://www.w3.org/1999/xlink" x="0px" y="0px" viewBox="0 0 1000 1000" enable-background="new 0 0 1000 1000" xml:space="preserve">
<g><path fill="#fff" d="M924.7,253.6C879.8,178.8,819.9,118.9,746.4,74C674.2,30.4,592.6,8.6,500,8.6c-92.6,0-174.2,21.8-246.4,65.3c-74.9,44.9-134.7,104.8-178.3,179.7C31.8,325.8,10,407.4,10,500s21.8,174.2,65.3,246.4c44.9,74.9,104.8,134.7,178.3,179.7c72.1,43.6,153.8,65.3,246.4,65.3c92.6,0,174.2-21.8,246.4-65.3c74.9-44.9,133.4-104.8,178.3-179.7C968.2,674.2,990,592.6,990,500S966.9,325.8,924.7,253.6z M730,674.2L674.2,730c-9.5,9.5-19.1,13.6-28.6,13.6c-13.6,0-23.1-4.1-28.6-13.6L500,615.7L384.3,730c-5.4,9.5-16.3,13.6-28.6,13.6c-10.9,0-20.4-4.1-28.6-13.6l-55.8-55.8c-9.5-9.5-13.6-19.1-13.6-29.9c0-13.6,4.1-23.1,13.6-28.6L385.7,500L271.4,382.9c-9.5-5.4-13.6-15-13.6-28.6c0-10.9,4.1-20.4,13.6-29.9l55.8-55.8c9.5-8.2,19.1-13.6,28.6-13.6c13.6,0,23.1,4.1,28.6,13.6L500,383l117.1-114.3c5.4-8.2,15-13.6,28.6-13.6c10.9,0,20.4,4.1,28.6,13.6l55.8,55.8c8.2,9.5,13.6,19.1,13.6,29.9c0,13.6-4.1,23.1-13.6,28.6L615.7,500L730,615.7c8.2,5.4,13.6,16.3,13.6,28.6C743.6,655.2,738.2,666,730,674.2z"/></g>
</svg>